<?xml version="1.0" encoding="UTF-8"?>
<!-- Do not edit this file with editors other than diagrams.net -->
<!DOCTYPE svg PUBLIC "-//W3C//DTD SVG 1.1//EN" "http://www.w3.org/Graphics/SVG/1.1/DTD/svg11.dtd">
<svg xmlns="http://www.w3.org/2000/svg" xmlns:xlink="http://www.w3.org/1999/xlink" version="1.1" width="681px" height="331px" viewBox="-0.5 -0.5 681 331" content="&lt;mxfile host=&quot;app.diagrams.net&quot; modified=&quot;2021-09-25T20:37:09.830Z&quot; agent=&quot;5.0 (X11; Linux x86_64) AppleWebKit/537.36 (KHTML, like Gecko) Chrome/91.0.4472.77 Safari/537.36&quot; etag=&quot;b7--lHDqDVK2P_GkRhJ_&quot; version=&quot;15.3.2&quot;&gt;&lt;diagram id=&quot;uoUlP9d0hUzRJjQ-IOVL&quot; name=&quot;Page-1&quot;&gt;7VzbbuIwEP2aPLZy7Nx4LNBuV2qlSuyq3adVCi6kCpgGU2C/fk1iJwQodS94nKovJp7YycTneMa3wSGd8fJHFk9H12xAUwejwdIhXQfj0MMiXQtWhcDDUjDMkkEhcitBL/lHpRBJ6TwZ0FmtIGcs5cm0LuyzyYT2eU0WZxlb1Is9sLT+1mk8pDuCXj9Od6W3yYCPCmnko0p+SZPhSL3ZRfLOOFaFpWA2igdssSEi5w7pZIzx4mq87NB03XaqXYp6Fy/cLRXL6ITrVAi7fx/97jP63bl+urn6efvrsn1/4vpSOb5SX5yx+WRA15WQQ9os4yM2ZJM4vWJsKoSuED5SzlcSq3jOmRCN+DiVd+ky4Xcb13/WjzoNfZntLuWj88xKZSY8W91tZopqvspW1fKcqleoTwc7KFbNIkUzNs/69FBbSHrF2ZDyA+VaJXiC9JSNqdBH1MtoGvPkua5HLOk3LMuVVW9YIjTESPYUHEqeyI5CAlR/RKGXrFXhLC421KhEOfpvYUK4w4R1q/ZkdsIm4qf9TY5XyOF/kBw1WN+KYfk1EBi+B0LXPgAJKIAYEED8ZTohhsRQPvc5TufyTQ4OUqFu+4HlBr8CN3iaM3XjZJajdSYKEDRdVjfF1TD/7bacyM/TwOlGzlmYp9E6bQufhJRQFIjy1HO6bSfq5NehUkJ8U6GHfOph978YJZz2pnEOy0KM8OpEkp9KM06Xh9HdRUNW8OturyWzi2qwpRzjaGOcRVx0JPg8tNMkdttQoz0Qa/bAANSK7umB25CmqZhB0NcZHs+mxbTiIVmu8f4MymOvznnX3SW9v4f0/rE4j+E4776H8eb4TjT57oHynRiFrzJTfzYxs3PYpwsg6JAB787Cv33OmyGMICEktvsctOVzImif02oY5w0aLU+T8S6o1fLMrjag9yDoOjDjBl0EQZeLPMttFtmyWUIAa7NcOJtl+TjZ1+T7R9fOP+Zyooa5HKPDLF0IQ1CTZXaB9H1TnQo1w+MGXQhB17h9y71OuWGrvE4I7HVI0DizhQ3arUB3sAzK+sBy1ntbYy1w0jdtK9Oorw51Of8C6IbWRMyuS9YwtHuCr40fgsQvtN1mqXVT5al96DUts566UQvxkSblYXcOIQ9BWe91dCGEXZYkgLP8r4IgAZ3kR5b7nfLwidpLgR4su82bIYYGWd/StVugM8SW7azfOqlFPOgp4veu+SEyo0awXqlpLe29lmXGnnj20/4EnSJE6twPyGvsz3M3NEtEQ9HsCF1C9/wwcJfYd4LYpi7hk60VcnBPYPb8Yn3ebfnOrIs1SQ865Cd7KG6bUQP05boYwq4XKjWtNVzbmxzunmgDsxO3fccGPzNYJHLaRermEtE8yOmeOWctFUdSRpNcqDARtHErVDElRRxJnkr97rMqhMTOyJKAvLqlVUbrmoktIU0782jQT5Fm7IkQ6zdFtm3c8Q7NiWwVvl7EIVf/AUDO/wM=&lt;/diagram&gt;&lt;/mxfile&gt;" style="background-color: rgb(255, 255, 255);"><defs/><g><path d="M 70 252.5 L 293.74 293.84" fill="none" stroke="#000000" stroke-miterlimit="10" pointer-events="stroke"/><path d="M 298.9 294.8 L 291.38 296.97 L 293.74 293.84 L 292.65 290.08 Z" fill="#000000" stroke="#000000" stroke-miterlimit="10" pointer-events="all"/><path d="M 70 252.5 L 163.86 226.69" fill="none" stroke="#000000" stroke-miterlimit="10" pointer-events="stroke"/><path d="M 168.92 225.3 L 163.1 230.53 L 163.86 226.69 L 161.24 223.78 Z" fill="#000000" stroke="#000000" stroke-miterlimit="10" pointer-events="all"/><path d="M 70 175 L 151.15 154.25" fill="none" stroke="#000000" stroke-miterlimit="10" pointer-events="stroke"/><path d="M 156.24 152.95 L 150.32 158.08 L 151.15 154.25 L 148.59 151.3 Z" fill="#000000" stroke="#000000" stroke-miterlimit="10" pointer-events="all"/><path d="M 70 97.5 L 183.85 66.66" fill="none" stroke="#000000" stroke-miterlimit="10" pointer-events="stroke"/><path d="M 188.92 65.29 L 183.08 70.5 L 183.85 66.66 L 181.25 63.74 Z" fill="#000000" stroke="#000000" stroke-miterlimit="10" pointer-events="all"/><rect x="0" y="20" width="70" height="310" fill="#ffffff" stroke="#000000" pointer-events="all"/><g transform="translate(-0.5 -0.5)"><switch><foreignObject pointer-events="none" width="100%" height="100%" requiredFeatures="http://www.w3.org/TR/SVG11/feature#Extensibility" style="overflow: visible; text-align: left;"><div xmlns="http://www.w3.org/1999/xhtml" style="display: flex; align-items: unsafe center; justify-content: unsafe center; width: 68px; height: 1px; padding-top: 175px; margin-left: 1px;"><div style="box-sizing: border-box; font-size: 0px; text-align: center;"><div style="display: inline-block; font-size: 12px; font-family: Helvetica; color: rgb(0, 0, 0); line-height: 1.2; pointer-events: all; white-space: normal; overflow-wrap: normal;"><font style="font-size: 30px">منابع اولیه</font></div></div></div></foreignObject><text x="35" y="179" fill="#000000" font-family="Helvetica" font-size="12px" text-anchor="middle">منابع اولیه</text></switch></g><path d="M 240 65 L 344.02 27.18" fill="none" stroke="#000000" stroke-miterlimit="10" pointer-events="stroke"/><path d="M 348.95 25.38 L 343.57 31.06 L 344.02 27.18 L 341.17 24.48 Z" fill="#000000" stroke="#000000" stroke-miterlimit="10" pointer-events="all"/><ellipse cx="215" cy="65" rx="25" ry="25" fill="#ffffff" stroke="#000000" pointer-events="all"/><path d="M 192.68 152.68 L 251.11 165.92" fill="none" stroke="#000000" stroke-miterlimit="10" pointer-events="stroke"/><path d="M 256.23 167.08 L 248.63 168.94 L 251.11 165.92 L 250.18 162.12 Z" fill="#000000" stroke="#000000" stroke-miterlimit="10" pointer-events="all"/><path d="M 175 110 L 193.29 87.61" fill="none" stroke="#000000" stroke-miterlimit="10" pointer-events="stroke"/><path d="M 196.61 83.54 L 194.9 91.18 L 193.29 87.61 L 189.48 86.75 Z" fill="#000000" stroke="#000000" stroke-miterlimit="10" pointer-events="all"/><path d="M 200 135 L 253.72 126.05" fill="none" stroke="#000000" stroke-miterlimit="10" pointer-events="stroke"/><path d="M 258.9 125.18 L 252.57 129.79 L 253.72 126.05 L 251.42 122.88 Z" fill="#000000" stroke="#000000" stroke-miterlimit="10" pointer-events="all"/><ellipse cx="175" cy="135" rx="25" ry="25" fill="#ffffff" stroke="#000000" pointer-events="all"/><path d="M 300 185 L 351.39 164.99" fill="none" stroke="#000000" stroke-miterlimit="10" pointer-events="stroke"/><path d="M 356.28 163.08 L 351.03 168.88 L 351.39 164.99 L 348.49 162.36 Z" fill="#000000" stroke="#000000" stroke-miterlimit="10" pointer-events="all"/><path d="M 250 185 L 218.14 204.05" fill="none" stroke="#000000" stroke-miterlimit="10" pointer-events="stroke"/><path d="M 213.64 206.75 L 217.85 200.15 L 218.14 204.05 L 221.44 206.16 Z" fill="#000000" stroke="#000000" stroke-miterlimit="10" pointer-events="all"/><ellipse cx="275" cy="185" rx="25" ry="25" fill="#ffffff" stroke="#000000" pointer-events="all"/><path d="M 212.68 242.68 L 301.34 275.13" fill="none" stroke="#000000" stroke-miterlimit="10" pointer-events="stroke"/><path d="M 306.27 276.94 L 298.5 277.82 L 301.34 275.13 L 300.9 271.25 Z" fill="#000000" stroke="#000000" stroke-miterlimit="10" pointer-events="all"/><path d="M 220 225 L 368.68 205.81" fill="none" stroke="#000000" stroke-miterlimit="10" pointer-events="stroke"/><path d="M 373.89 205.14 L 367.4 209.51 L 368.68 205.81 L 366.5 202.57 Z" fill="#000000" stroke="#000000" stroke-miterlimit="10" pointer-events="all"/><path d="M 195 200 L 177.85 165.7" fill="none" stroke="#000000" stroke-miterlimit="10" pointer-events="stroke"/><path d="M 175.5 161 L 181.76 165.7 L 177.85 165.7 L 175.5 168.83 Z" fill="#000000" stroke="#000000" stroke-miterlimit="10" pointer-events="all"/><ellipse cx="195" cy="225" rx="25" ry="25" fill="#ffffff" stroke="#000000" pointer-events="all"/><path d="M 400 25 L 573.89 75.72" fill="none" stroke="#000000" stroke-miterlimit="10" pointer-events="stroke"/><path d="M 578.93 77.19 L 571.23 78.59 L 573.89 75.72 L 573.19 71.87 Z" fill="#000000" stroke="#000000" stroke-miterlimit="10" pointer-events="all"/><ellipse cx="375" cy="25" rx="25" ry="25" fill="#ffffff" stroke="#000000" pointer-events="all"/><path d="M 425 205 L 473.73 196.14" fill="none" stroke="#000000" stroke-miterlimit="10" pointer-events="stroke"/><path d="M 478.9 195.2 L 472.64 199.9 L 473.73 196.14 L 471.39 193.01 Z" fill="#000000" stroke="#000000" stroke-miterlimit="10" pointer-events="all"/><path d="M 417.68 187.32 L 443.8 147.98" fill="none" stroke="#000000" stroke-miterlimit="10" pointer-events="stroke"/><path d="M 446.7 143.61 L 445.75 151.38 L 443.8 147.98 L 439.92 147.5 Z" fill="#000000" stroke="#000000" stroke-miterlimit="10" pointer-events="all"/><ellipse cx="400" cy="205" rx="25" ry="25" fill="#ffffff" stroke="#000000" pointer-events="all"/><path d="M 285 100 L 352.33 46.63" fill="none" stroke="#000000" stroke-miterlimit="10" pointer-events="stroke"/><path d="M 356.45 43.37 L 353.13 50.46 L 352.33 46.63 L 348.79 44.98 Z" fill="#000000" stroke="#000000" stroke-miterlimit="10" pointer-events="all"/><path d="M 310 125 L 344.3 142.15" fill="none" stroke="#000000" stroke-miterlimit="10" pointer-events="stroke"/><path d="M 349 144.5 L 341.17 144.5 L 344.3 142.15 L 344.3 138.24 Z" fill="#000000" stroke="#000000" stroke-miterlimit="10" pointer-events="all"/><path d="M 302.68 107.32 L 344.24 87.72" fill="none" stroke="#000000" stroke-miterlimit="10" pointer-events="stroke"/><path d="M 348.99 85.48 L 344.15 91.63 L 344.24 87.72 L 341.16 85.3 Z" fill="#000000" stroke="#000000" stroke-miterlimit="10" pointer-events="all"/><ellipse cx="285" cy="125" rx="25" ry="25" fill="#ffffff" stroke="#000000" pointer-events="all"/><path d="M 350 295 L 573.85 234.17" fill="none" stroke="#000000" stroke-miterlimit="10" pointer-events="stroke"/><path d="M 578.92 232.79 L 573.08 238.01 L 573.85 234.17 L 571.25 231.25 Z" fill="#000000" stroke="#000000" stroke-miterlimit="10" pointer-events="all"/><ellipse cx="325" cy="295" rx="25" ry="25" fill="#ffffff" stroke="#000000" pointer-events="all"/><path d="M 490 125 L 573.96 152.99" fill="none" stroke="#000000" stroke-miterlimit="10" pointer-events="stroke"/><path d="M 578.94 154.65 L 571.19 155.75 L 573.96 152.99 L 573.41 149.11 Z" fill="#000000" stroke="#000000" stroke-miterlimit="10" pointer-events="all"/><ellipse cx="465" cy="125" rx="25" ry="25" fill="#ffffff" stroke="#000000" pointer-events="all"/><path d="M 530 195 L 573.34 196.61" fill="none" stroke="#000000" stroke-miterlimit="10" pointer-events="stroke"/><path d="M 578.58 196.81 L 571.46 200.05 L 573.34 196.61 L 571.72 193.05 Z" fill="#000000" stroke="#000000" stroke-miterlimit="10" pointer-events="all"/><ellipse cx="505" cy="195" rx="25" ry="25" fill="#ffffff" stroke="#000000" pointer-events="all"/><path d="M 375 170 L 379.84 181.46" fill="none" stroke="#000000" stroke-miterlimit="10" pointer-events="stroke"/><path d="M 381.89 186.29 L 375.94 181.21 L 379.84 181.46 L 382.39 178.48 Z" fill="#000000" stroke="#000000" stroke-miterlimit="10" pointer-events="all"/><path d="M 400 145 L 434.3 127.85" fill="none" stroke="#000000" stroke-miterlimit="10" pointer-events="stroke"/><path d="M 439 125.5 L 434.3 131.76 L 434.3 127.85 L 431.17 125.5 Z" fill="#000000" stroke="#000000" stroke-miterlimit="10" pointer-events="all"/><ellipse cx="375" cy="145" rx="25" ry="25" fill="#ffffff" stroke="#000000" pointer-events="all"/><rect x="580" y="0" width="100" height="310" fill="#ffffff" stroke="#000000" pointer-events="all"/><g transform="translate(-0.5 -0.5)"><switch><foreignObject pointer-events="none" width="100%" height="100%" requiredFeatures="http://www.w3.org/TR/SVG11/feature#Extensibility" style="overflow: visible; text-align: left;"><div xmlns="http://www.w3.org/1999/xhtml" style="display: flex; align-items: unsafe center; justify-content: unsafe center; width: 98px; height: 1px; padding-top: 155px; margin-left: 581px;"><div style="box-sizing: border-box; font-size: 0px; text-align: center;"><div style="display: inline-block; font-size: 12px; font-family: Helvetica; color: rgb(0, 0, 0); line-height: 1.2; pointer-events: all; white-space: normal; overflow-wrap: normal;"><font style="font-size: 30px">مصرف کننده نهایی<br /></font></div></div></div></foreignObject><text x="630" y="159" fill="#000000" font-family="Helvetica" font-size="12px" text-anchor="middle">مصرف کننده نهایی&#xa;</text></switch></g><path d="M 400 85 L 441.56 104.61" fill="none" stroke="#000000" stroke-miterlimit="10" pointer-events="stroke"/><path d="M 446.31 106.85 L 438.49 107.02 L 441.56 104.61 L 441.47 100.69 Z" fill="#000000" stroke="#000000" stroke-miterlimit="10" pointer-events="all"/><ellipse cx="375" cy="85" rx="25" ry="25" fill="#ffffff" stroke="#000000" pointer-events="all"/></g><switch><g requiredFeatures="http://www.w3.org/TR/SVG11/feature#Extensibility"/><a transform="translate(0,-5)" xlink:href="https://www.diagrams.net/doc/faq/svg-export-text-problems" target="_blank"><text text-anchor="middle" font-size="10px" x="50%" y="100%">Viewer does not support full SVG 1.1</text></a></switch></svg>